# xmcd CD database file
#
# Track frame offsets:
#	150
#	20700
#	37125
#	60575
#	78750
#	106450
#	132800
#	148725
#	184200
#	199075
#	217550
#	240375
#	256550
#	277425
#	299800
#	317175
#	331025
#
# Disc length: 4612 seconds
#
# Revision: 2
# Processed by: cddbd v1.5.2PL0 Copyright (c) Steve Scherf et al.
# Submitted via: cdripper 1,0,39,0213
#
DISCID=00120211
DTITLE=Arny Kay - Hang on Jimi
DYEAR=1994
DGENRE=Blues
TTITLE0=Roaches
TTITLE1=Jeannie Jeannie
TTITLE2=Hang on Jimi
TTITLE3=Comin back home
TTITLE4=Las Vegas Blues
TTITLE5=I got the blues
TTITLE6=Rollin Man
TTITLE7=Talk it over again
TTITLE8=Hot squeeze
TTITLE9=Rock it
TTITLE10=Gina
TTITLE11=When you got a good friend
TTITLE12=Rock on by
TTITLE13=Don't give all
TTITLE14=Strollin
TTITLE15=Goin away Blues
TTITLE16=Hang on Jimi (radio ver)
EXTD=YEAR: 1994
EXTT0=
EXTT1=
EXTT2=
EXTT3=
EXTT4=
EXTT5=
EXTT6=
EXTT7=
EXTT8=
EXTT9=
EXTT10=
EXTT11=
EXTT12=
EXTT13=
EXTT14=
EXTT15=
EXTT16=
PLAYORDER=
